<svg 
 xmlns="http://www.w3.org/2000/svg"
 xmlns:xlink="http://www.w3.org/1999/xlink"
 width="171px" height="157px">
<path fill-rule="evenodd"  opacity="0.4" fill="rgb(246, 147, 34)"
 d="M14.289,85.355 L85.000,14.645 L155.711,85.355 L85.000,156.066 L14.289,85.355 Z"/>
<path fill-rule="evenodd"  opacity="0.451" fill="rgb(255, 242, 0)"
 d="M50.000,49.645 C69.526,30.118 101.184,30.118 120.711,49.645 C140.237,69.171 140.237,100.829 120.711,120.355 C101.184,139.882 69.526,139.882 50.000,120.355 C30.474,100.829 30.474,69.171 50.000,49.645 Z"/>
<path fill-rule="evenodd"  opacity="0.6" fill="rgb(40, 169, 224)"
 d="M85.289,14.645 C104.816,-4.882 136.474,-4.882 156.000,14.645 C175.526,34.171 175.526,65.829 156.000,85.355 C136.474,104.882 104.816,104.882 85.289,85.355 C65.763,65.829 65.763,34.171 85.289,14.645 Z"/>
<path fill-rule="evenodd"  opacity="0.6" fill="rgb(139, 197, 67)"
 d="M14.645,15.000 C34.171,-4.526 65.829,-4.526 85.355,15.000 C104.882,34.526 104.882,66.184 85.355,85.711 C65.829,105.237 34.171,105.237 14.645,85.711 C-4.882,66.184 -4.882,34.526 14.645,15.000 Z"/>
</svg>